<svg class="svg-icon" style="width: 1em; height: 1em;vertical-align: middle;fill: currentColor;overflow: hidden;" viewBox="0 0 1024 1024" version="1.1" xmlns="http://www.w3.org/2000/svg"><path d="M512 598.016q109.994667 0 169.984-91.989333 0-38.016-59.008-63.018667t-111.018667-25.002667-111.018667 25.002667-59.008 63.018667q59.989333 91.989333 169.984 91.989333zM512 169.984q-34.005333 0-59.989333 25.984t-25.984 59.989333q0 36.010667 25.984 61.013333t59.989333 25.002667 59.989333-25.002667 25.984-61.013333q0-34.005333-25.984-59.989333t-59.989333-25.984zM512 86.016q123.989333 0 210.986667 86.997333t86.997333 210.986667q0 61.994667-31.018667 141.994667t-75.008 150.016-86.997333 130.986667-73.002667 96.981333l-32 34.005333q-11.989333-13.994667-32-36.992t-72.021333-91.989333-91.008-134.016-70.997333-146.986667-32-144q0-123.989333 86.997333-210.986667t210.986667-86.997333z"  /></svg>